<svg height="512" width="512" xmlns="http://www.w3.org/2000/svg" xmlns:xlink="http://www.w3.org/1999/xlink"><clipPath id="a"><rect height="512" rx="15%" width="512"/></clipPath><g clip-path="url(#a)"><path d="m16 0 50 156-66 21v-177z" fill="#167e67"/><path d="m66 156 94 281 275-90-89-279z" fill="#f7fafa"/><path d="m16 1 50 155 280-88-22-68z" fill="#8bd2de"/><path d="m324 0 22 68 166-51-1-17z" fill="#829d34"/><path d="m0 487v-310l66-21 94 281z" fill="#47af87"/><path d="m435 347-89-279 166-51v305z" fill="#e9ab1f"/><path d="m490 512-55-165 77-25v190z" fill="#c51012"/><path d="m0 512v-25l160-50 25 75z" fill="#190319"/><path d="m185 512-25-75 275-90 55 165z" fill="#d41439"/><path d="m184 219c0-35 26-59 72-59 28 0 51 9 63 18 2 1 5 4 3 9-2 7-7 16-10 22-2 3-6 3-9 1-9-4-23-12-37-13l-10-1c-12 1-21 5-25 14l-1 5c0 12 16 16 36 20 37 6 65 17 65 55 0 32-26 62-76 61-33-1-57-12-70-23 0 0-5-5-2-11 3-8 8-16 12-21 2-3 8-4 11-2a99 99 0 0 0 52 18c17-1 28-7 28-19 0-10-14-15-37-20-36-6-65-18-65-54" fill="#111"/></g></svg>